/* XPM */
const char * test_xpm[] = {
"20 20 2 1",
" 	c #DD0000",
".	c #FFFFFF",
"       ......       ",
"      .......       ",
"      .......       ",
"      .......       ",
"      .......       ",
"      .......       ",
"....................",
"....................",
"....................",
"....................",
"....................",
"....................",
"      .......       ",
"      .......       ",
"       ......       ",
"       ......       ",
"       ......       ",
"       ......       ",
"       ......       ",
"       .......      "};
